<?xml version="1.0" encoding="UTF-8"?>
<svg version="1.1" xmlns="http://www.w3.org/2000/svg" width="731" height="300">
<path d="M0 0 C18 0 18 0 22.47094727 3.63330078 C24.07752991 6.04446411 24.07752991 6.04446411 25.56640625 8.6953125 C26.14108139 9.59434296 26.71575653 10.49337341 27.30784607 11.41964722 C29.12197859 14.28763297 30.84126654 17.20052486 32.5625 20.125 C33.74733326 22.03363686 34.93805215 23.93863324 36.13476562 25.83984375 C38.35829839 29.39059145 40.54471848 32.9588149 42.69360352 36.55517578 C46.6750354 43.11161778 50.85204271 49.547622 55 56 C55.33 37.52 55.66 19.04 56 0 C61.94 0 67.88 0 74 0 C74 28.71 74 57.42 74 87 C56 87 56 87 51.8125 82.91796875 C50.9029409 81.30999821 49.99884886 79.69822022 49.14404297 78.06048584 C47.23535169 74.62282532 44.99093832 71.41200012 42.7956543 68.15266418 C40.96688089 65.43721056 39.16235117 62.70773315 37.3671875 59.9699707 C31.2493034 50.64368595 25.1238043 41.32239851 19 32 C18.67 50.15 18.34 68.3 18 87 C12.06 87 6.12 87 0 87 C0 58.29 0 29.58 0 0 Z " fill="#001163" transform="translate(628,71)"/>
<path d="M0 0 C5.94 0 11.88 0 18 0 C18 11.55 18 23.1 18 35 C29.88 35 41.76 35 54 35 C54 23.45 54 11.9 54 0 C59.94 0 65.88 0 72 0 C72 28.38 72 56.76 72 86 C66.06 86 60.12 86 54 86 C54 74.12 54 62.24 54 50 C42.12 50 30.24 50 18 50 C18 61.88 18 73.76 18 86 C12.06 86 6.12 86 0 86 C0 57.62 0 29.24 0 0 Z " fill="#001163" transform="translate(417,72)"/>
<path d="M0 0 C6.93 0 13.86 0 21 0 C40.94013725 54.69252929 40.94013725 54.69252929 47.75 73.875 C47.97765045 74.51470734 48.2053009 75.15441467 48.43984985 75.81350708 C52 85.82627572 52 85.82627572 52 87 C45.4 87 38.8 87 32 87 C30.35 82.05 28.7 77.1 27 72 C15.78 71.67 4.56 71.34 -7 71 C-7.66 73.97 -8.32 76.94 -9 80 C-9.99 82.31 -10.98 84.62 -12 87 C-18.27 87 -24.54 87 -31 87 C-28.72192298 79.14532281 -26.10734222 71.45170714 -23.359375 63.75 C-22.90946764 62.48466866 -22.45970267 61.21928668 -22.0100708 59.95385742 C-21.0703444 57.31094379 -20.1288351 54.66867418 -19.18603516 52.02685547 C-17.99819844 48.69794735 -16.81495566 45.3674283 -15.63297272 42.03643799 C-10.62867895 27.94019258 -5.51918226 13.90468016 0 0 Z M10 23 C7.15445571 29.71619149 4.68221741 36.56354785 2.25 43.4375 C1.93216553 44.32598633 1.61433105 45.21447266 1.28686523 46.12988281 C0.99110596 46.97260742 0.69534668 47.81533203 0.390625 48.68359375 C-0.0110791 49.82139282 -0.0110791 49.82139282 -0.42089844 50.98217773 C-1.13792879 53.13071971 -1.13792879 53.13071971 -1 56 C6.59 56 14.18 56 22 56 C18.37 45.11 14.74 34.22 11 23 C10.67 23 10.34 23 10 23 Z " fill="#001163" transform="translate(531,71)"/>
<path d="M0 0 C7.40034622 5.18858861 13.07499067 11.89438989 15.703125 20.64453125 C15.703125 22.29453125 15.703125 23.94453125 15.703125 25.64453125 C10.093125 25.64453125 4.483125 25.64453125 -1.296875 25.64453125 C-1.998125 24.24203125 -2.699375 22.83953125 -3.421875 21.39453125 C-6.59323234 15.73583482 -9.86808441 13.50901604 -15.984375 11.33203125 C-23.28857923 9.78180817 -31.00735838 10.63846027 -37.515625 14.359375 C-43.55626063 18.71764062 -47.0504014 24.32021118 -48.296875 31.64453125 C-49.21614529 42.5282375 -48.68623232 52.87899827 -42.109375 62.08203125 C-35.54944167 68.0588594 -29.15172245 69.27167002 -20.38671875 68.96484375 C-13.52718509 68.25374165 -8.75656461 66.09526299 -4.296875 60.64453125 C-2.84440868 58.35392043 -1.56805406 56.04564726 -0.296875 53.64453125 C4.983125 53.64453125 10.263125 53.64453125 15.703125 53.64453125 C16.703125 55.64453125 16.703125 55.64453125 16.13671875 57.96484375 C12.21955004 68.99436191 6.98637981 75.80599652 -3.296875 81.64453125 C-15.66620142 86.98761054 -29.66488207 87.39632511 -42.296875 82.64453125 C-53.83296683 77.00636186 -59.66735058 69.16744669 -64.3515625 57.44140625 C-69.02823698 43.60463382 -67.13804362 27.60313082 -60.859375 14.6875 C-54.88903179 4.19634403 -45.75906287 -1.71787221 -34.31835938 -4.90698242 C-23.01435126 -7.41488857 -9.92997252 -5.86003481 0 0 Z " fill="#001163" transform="translate(145.296875,43.35546875)"/>
<path d="M0 0 C1.8538061 -0.00874829 1.8538061 -0.00874829 3.74506283 -0.01767331 C5.12910956 -0.01403956 6.5131558 -0.01021516 7.89720154 -0.00622082 C9.35768359 -0.00923867 10.81816406 -0.01312629 12.2786417 -0.01781338 C16.3064459 -0.02814935 20.33416164 -0.02589743 24.36197329 -0.02163279 C28.7001318 -0.01917568 33.03826845 -0.028167 37.37641907 -0.03567028 C45.88058613 -0.04844736 54.38472166 -0.05020726 62.8888967 -0.04787002 C69.7976846 -0.04609018 76.70646289 -0.0478293 83.61524963 -0.05209446 C84.59687909 -0.05268965 85.57850854 -0.05328484 86.58988434 -0.05389806 C88.58376781 -0.05510976 90.57765128 -0.05632389 92.57153475 -0.05754044 C111.28775268 -0.06842741 130.00395262 -0.06624792 148.72017157 -0.06015559 C165.8614776 -0.05498447 183.00272684 -0.06624498 200.14402163 -0.08525381 C217.72483292 -0.10460132 235.30561731 -0.11289371 252.88643932 -0.10913056 C262.76473038 -0.10721393 272.64297308 -0.10975086 282.52125549 -0.1238451 C290.92988654 -0.13572057 299.33843946 -0.13720707 307.7470715 -0.12505493 C312.04094898 -0.11913935 316.33468329 -0.11814017 320.62855148 -0.13005733 C324.55403247 -0.14082591 328.47924918 -0.13792186 332.40471733 -0.12379565 C333.82998636 -0.1211236 335.25527552 -0.12359283 336.68052495 -0.13153151 C338.60762223 -0.14152618 340.53479311 -0.13149166 342.46188354 -0.12025452 C343.53540793 -0.12030953 344.60893232 -0.12036455 345.71498775 -0.12042123 C346.54525258 0.00329472 347.37551741 0.12701067 348.23094177 0.25447559 C350.23094177 3.25447559 350.23094177 3.25447559 349.91844177 5.87947559 C349.23094177 8.25447559 349.23094177 8.25447559 348.23094177 9.25447559 C346.34490764 9.35300892 344.45512692 9.38003216 342.56652069 9.38031673 C340.70955102 9.38422836 340.70955102 9.38422836 338.81506681 9.388219 C337.42345891 9.38605647 336.03185115 9.3837998 334.64024353 9.38145924 C333.17578864 9.38261008 331.71133404 9.38419735 330.24688005 9.38618648 C326.20350355 9.39038487 322.16015046 9.38828683 318.11677384 9.38520026 C313.76362841 9.38294844 309.41048715 9.38642468 305.05734253 9.38918018 C296.52196282 9.39363922 287.98659187 9.39266082 279.45121181 9.38976754 C272.51760401 9.38751403 265.58399868 9.38720076 258.65039062 9.38829136 C257.6655616 9.38844459 256.68073257 9.38859783 255.66606024 9.3887557 C253.6657325 9.38907541 251.66540477 9.38939962 249.66507703 9.38972829 C230.88451703 9.39258348 212.1039619 9.38929546 193.3234027 9.38392793 C177.19020365 9.37945985 161.05701179 9.38023577 144.92381287 9.38484669 C126.21289371 9.39019177 107.50197883 9.39230878 88.79105902 9.38923442 C86.79787032 9.38891586 84.80468162 9.38860149 82.81149292 9.38829136 C81.83066947 9.38813708 80.84984603 9.38798281 79.83930066 9.38782386 C72.90975246 9.3869585 65.98020696 9.38842197 59.05065918 9.39077091 C50.61198735 9.39356838 42.17332483 9.39283177 33.73465407 9.38749017 C29.42475091 9.38485243 25.11486331 9.3838493 20.80496025 9.38713932 C16.86600335 9.39010082 12.92707654 9.38851194 8.9881224 9.38316177 C7.55678492 9.38203695 6.12544493 9.38263018 4.69410902 9.38503756 C2.76119533 9.38804126 0.8282746 9.38438832 -1.10463715 9.38031673 C-2.18212109 9.38015438 -3.25960504 9.37999203 -4.36974001 9.37982476 C-6.76905823 9.25447559 -6.76905823 9.25447559 -7.76905823 8.25447559 C-7.95655823 5.31697559 -7.95655823 5.31697559 -7.76905823 2.25447559 C-5.08254977 -0.43203287 -3.7577798 0.00303408 0 0 Z " fill="#4060FC" transform="translate(7.7690582275390625,254.7455244064331)"/>
<path d="M0 0 C5.61 0 11.22 0 17 0 C23.25584906 16.55106162 29.34184951 33.15660392 35.3125 49.8125 C36.49446099 53.10467248 37.67689308 56.39667545 38.85942078 59.68864441 C39.58448038 61.70762095 40.30913468 63.72674312 41.03327942 65.74604797 C41.36430161 66.66879013 41.69532379 67.59153229 42.03637695 68.54223633 C42.35619537 69.43657379 42.67601379 70.33091125 43.00552368 71.25234985 C43.70469236 73.18409111 44.41696809 75.11111407 45.13876343 77.03451538 C45.5057132 78.01658966 45.87266296 78.99866394 46.25073242 80.01049805 C46.58578293 80.89585739 46.92083344 81.78121674 47.26603699 82.69340515 C48 85 48 85 48 88 C42.39 88 36.78 88 31 88 C29.99422987 85.23113877 28.99519853 82.46015896 28 79.6875 C27.71382812 78.90181641 27.42765625 78.11613281 27.1328125 77.30664062 C26.86210938 76.54931641 26.59140625 75.79199219 26.3125 75.01171875 C26.06113281 74.31522217 25.80976562 73.61872559 25.55078125 72.90112305 C25 71 25 71 25 68 C9.16 68.495 9.16 68.495 -7 69 C-9.31 75.27 -11.62 81.54 -14 88 C-19.61 88 -25.22 88 -31 88 C-28.796684 80.41192188 -26.28538564 72.98161789 -23.61328125 65.546875 C-23.19257858 64.37022278 -22.77187592 63.19357056 -22.33842468 61.98126221 C-21.2238231 58.86558492 -20.10697714 55.75072453 -18.98907471 52.63623047 C-17.87924011 49.54210973 -16.77287485 46.44674862 -15.66601562 43.3515625 C-10.48879611 28.88466582 -5.26774935 14.43417084 0 0 Z M8 23 C6.57191631 27.09206747 5.14785715 31.18550604 3.72753906 35.28027344 C3.24362265 36.67356297 2.7586014 38.06646928 2.27246094 39.45898438 C1.57457494 41.4586414 0.8806516 43.45963523 0.1875 45.4609375 C-0.23144531 46.66540527 -0.65039062 47.86987305 -1.08203125 49.11083984 C-2.10093713 51.81243568 -2.10093713 51.81243568 -2 54 C4.93 54 11.86 54 19 54 C17.35522238 46.47577719 17.35522238 46.47577719 15.0546875 39.30859375 C14.70019531 38.34501953 14.34570312 37.38144531 13.98046875 36.38867188 C13.43326172 34.9278418 13.43326172 34.9278418 12.875 33.4375 C12.31619141 31.92446289 12.31619141 31.92446289 11.74609375 30.38085938 C10.83587803 27.91860915 9.92043712 25.45844342 9 23 C8.67 23 8.34 23 8 23 Z " fill="#001163" transform="translate(32,39)"/>
<path d="M0 0 C5.28 0 10.56 0 16 0 C19.4675378 8.16161469 22.65694011 16.36117842 25.6171875 24.71875 C26.03743195 25.89731567 26.45767639 27.07588135 26.89065552 28.29016113 C28.2217627 32.02571664 29.54839648 35.76284309 30.875 39.5 C31.75622928 41.97405849 32.63773765 44.44801759 33.51953125 46.921875 C38.39092226 60.59916332 43.21760861 74.29134676 48 88 C42.06 88 36.12 88 30 88 C28.99636291 85.04285501 27.9969452 82.0844004 27 79.125 C26.71382812 78.28324219 26.42765625 77.44148438 26.1328125 76.57421875 C25.86210937 75.76855469 25.59140625 74.96289062 25.3125 74.1328125 C25.06113281 73.38918457 24.80976563 72.64555664 24.55078125 71.87939453 C24 70 24 70 24 68 C8.16 68.495 8.16 68.495 -8 69 C-9.93101238 74.5041318 -9.93101238 74.5041318 -11.85913086 80.00927734 C-12.10026611 80.6945752 -12.34140137 81.37987305 -12.58984375 82.0859375 C-12.83597412 82.7876709 -13.08210449 83.4894043 -13.33569336 84.21240234 C-14 86 -14 86 -15 88 C-20.61 88 -26.22 88 -32 88 C-27.03077174 72.74857759 -21.69811171 57.64532795 -16.20166016 42.57641602 C-14.8658837 38.91249477 -13.53620385 35.24639954 -12.20703125 31.58007812 C-11.34411075 29.20820206 -10.48084195 26.83645267 -9.6171875 24.46484375 C-9.22747772 23.38959946 -8.83776794 22.31435516 -8.43624878 21.20652771 C-5.81940321 14.04844721 -2.97262006 7.01804814 0 0 Z M7 23 C5.57191631 27.09206747 4.14785715 31.18550604 2.72753906 35.28027344 C2.24362265 36.67356297 1.7586014 38.06646928 1.27246094 39.45898438 C0.57457494 41.4586414 -0.1193484 43.45963523 -0.8125 45.4609375 C-1.23144531 46.66540527 -1.65039062 47.86987305 -2.08203125 49.11083984 C-3.10093713 51.81243568 -3.10093713 51.81243568 -3 54 C4.26 54 11.52 54 19 54 C17.9275 50.74125 16.855 47.4825 15.75 44.125 C15.2564502 42.61703857 15.2564502 42.61703857 14.75292969 41.07861328 C12.72392141 34.95463236 10.46612275 28.96114691 8 23 C7.67 23 7.34 23 7 23 Z " fill="#001163" transform="translate(192,39)"/>
<path d="M0 0 C12.42267365 -0.06975801 24.84530008 -0.12294176 37.2681303 -0.15543652 C43.03762966 -0.17103868 48.80699421 -0.19217674 54.57641602 -0.22631836 C60.1526044 -0.25910696 65.72866377 -0.27689391 71.30494118 -0.28463173 C73.42381633 -0.29014041 75.54268507 -0.30089674 77.66150475 -0.31719017 C95.49164063 -0.44874823 110.87196827 -0.00973967 124.4375 13.0625 C131 20.0094697 131 20.0094697 131 25 C104.38520227 25.07045253 77.78067743 24.90331174 51.16845703 24.53643799 C46.60712216 24.47415261 42.04574684 24.41497403 37.484375 24.35546875 C28.6562097 24.23987577 19.82809172 24.1210821 11 24 C9.34357236 20.94311771 7.70178208 17.87860605 6.0625 14.8125 C5.35963867 13.51602539 5.35963867 13.51602539 4.64257812 12.19335938 C4.19462891 11.35224609 3.74667969 10.51113281 3.28515625 9.64453125 C2.66459351 8.48981323 2.66459351 8.48981323 2.03149414 7.31176758 C0.94565167 4.87819542 0.4240867 2.62365602 0 0 Z " fill="#4060FC" transform="translate(224,40)"/>
<path d="M0 0 C1.18637306 -0.00021904 1.18637306 -0.00021904 2.39671326 -0.0004425 C4.99383347 0.0002505 7.5908807 0.0080141 10.18798828 0.01586914 C11.99545248 0.0177355 13.80291719 0.01915837 15.61038208 0.02015686 C20.35487274 0.0239649 25.09933253 0.03378051 29.84381104 0.04486084 C34.69030337 0.05511184 39.53680072 0.05966237 44.38330078 0.06469727 C53.88331649 0.07540437 63.38330123 0.09298724 72.88330078 0.11352539 C72.88330078 8.36352539 72.88330078 16.61352539 72.88330078 25.11352539 C34.93330078 25.11352539 -3.01669922 25.11352539 -42.11669922 25.11352539 C-38.39001484 15.79681444 -32.06790179 8.71091175 -23.11669922 4.11352539 C-15.54681358 0.93016289 -8.18714165 -0.04000205 0 0 Z " fill="#001164" transform="translate(329.11669921875,70.886474609375)"/>
<path d="M0 0 C37.95 0 75.9 0 115 0 C115 7.92 115 15.84 115 24 C104.22047475 24.06795136 93.44109327 24.12291717 82.66140175 24.15543652 C77.65520859 24.17104924 72.6491704 24.19220679 67.64306641 24.22631836 C62.80604925 24.25906909 57.96918054 24.27688601 53.132061 24.28463173 C51.29260295 24.29014714 49.45315243 24.30091701 47.61375809 24.31719017 C30.88319986 24.45923228 18.01778865 22.29883812 5.5703125 10.1015625 C3.26869364 7.02128651 1.71962494 3.43924987 0 0 Z " fill="#001164" transform="translate(287,134)"/>
<path d="M0 0 C34.98 0 69.96 0 106 0 C102.88725373 9.33823881 97.2474588 14.72712385 88.8828125 19.7109375 C79.4973155 23.90770445 70.73088686 24.40812552 60.5859375 24.29296875 C59.12049803 24.28736115 57.65505286 24.28309657 56.18960571 24.28010559 C52.36566148 24.26874821 48.54206876 24.23936178 44.71826172 24.20599365 C40.80310824 24.17509421 36.88789698 24.16155815 32.97265625 24.14648438 C25.31494534 24.11448141 17.65752226 24.06339818 10 24 C8.32386272 20.56703905 6.66074303 17.12793117 5 13.6875 C4.52304688 12.71103516 4.04609375 11.73457031 3.5546875 10.72851562 C3.10351562 9.79072266 2.65234375 8.85292969 2.1875 7.88671875 C1.76855469 7.02264404 1.34960938 6.15856934 0.91796875 5.26831055 C0 3 0 3 0 0 Z " fill="#4060FC" transform="translate(249,103)"/>
<path d="M0 0 C6.27 0 12.54 0 19 0 C19 28.38 19 56.76 19 86 C12.73 86 6.46 86 0 86 C0 57.62 0 29.24 0 0 Z " fill="#001163" transform="translate(593,72)"/>
<path d="M0 0 C7.92 0 15.84 0 24 0 C22.5407273 4.3778181 21.16173572 7.86467477 19.05078125 11.875 C18.45676514 13.01163086 17.86274902 14.14826172 17.25073242 15.31933594 C16.60466933 16.54623153 15.9585915 17.77311936 15.3125 19 C13.95757151 21.5867918 12.60672212 24.17568996 11.2578125 26.765625 C10.91032455 27.43249329 10.56283661 28.09936157 10.20481873 28.78643799 C7.66354204 33.68043526 5.1873307 38.60421975 2.7421875 43.546875 C2.39981552 44.23801392 2.05744354 44.92915283 1.70469666 45.64123535 C0.04486519 48.99523501 -1.60720077 52.35282907 -3.25073242 55.71484375 C-3.85054336 56.9297889 -4.45054912 58.14463788 -5.05078125 59.359375 C-5.57325439 60.42639648 -6.09572754 61.49341797 -6.6340332 62.59277344 C-8 65 -8 65 -10 66 C-12.24658203 65.74633789 -12.24658203 65.74633789 -15.0078125 65.22265625 C-15.99394531 65.03896484 -16.98007812 64.85527344 -17.99609375 64.66601562 C-19.54490234 64.36727539 -19.54490234 64.36727539 -21.125 64.0625 C-22.16527344 63.86720703 -23.20554687 63.67191406 -24.27734375 63.47070312 C-26.85273258 62.98634101 -29.42680566 62.49586612 -32 62 C-30.32636561 56.09305509 -27.4831946 50.89770549 -24.625 45.5 C-24.09696777 44.49549805 -23.56893555 43.49099609 -23.02490234 42.45605469 C-17.92318002 32.7840709 -12.69384146 23.18230349 -7.42675781 13.59960938 C-4.94163142 9.07161043 -2.47180222 4.53528313 0 0 Z " fill="#4060FD" transform="translate(406,220)"/>
<path d="M0 0 C2.97 0 5.94 0 9 0 C7.66795786 4.27789208 6.02862516 8.18668771 4.01904297 12.18896484 C3.7261438 12.77505524 3.43324463 13.36114563 3.13146973 13.96499634 C2.17216012 15.88223349 1.20723199 17.79658154 0.2421875 19.7109375 C-0.42791153 21.04740143 -1.09765516 22.38404361 -1.76705933 23.72085571 C-3.52256321 27.22425849 -5.28286025 30.72523109 -7.04418945 34.22570801 C-8.84357643 37.80395586 -10.63838799 41.3844969 -12.43359375 44.96484375 C-15.951273 51.97880766 -19.47444355 58.98999224 -23 66 C-30.59 64.68 -38.18 63.36 -46 62 C-46 59 -46 59 -44 55 C-39.05 55.33 -34.1 55.66 -29 56 C-24.9535857 49.77375358 -21.55358052 43.37054827 -18.26171875 36.71875 C-17.73608841 35.66465942 -17.21045807 34.61056885 -16.66889954 33.52453613 C-15.00464007 30.18489664 -13.34599057 26.84250749 -11.6875 23.5 C-10.55440704 21.22377382 -9.42094725 18.94773021 -8.28710938 16.671875 C-5.52049233 11.11668835 -2.75846556 5.55923843 0 0 Z " fill="#001163" transform="translate(428,234)"/>
<path d="M0 0 C1.134375 0.020625 2.26875 0.04125 3.4375 0.0625 C5.29092368 5.17041129 7.14228283 10.27906415 8.99169922 15.38842773 C9.62165989 17.12789323 10.25219277 18.86715161 10.88330078 20.60620117 C11.78827616 23.10021104 12.69121759 25.59494895 13.59375 28.08984375 C13.87810913 28.87213852 14.16246826 29.65443329 14.45544434 30.46043396 C16.4375 35.94862829 16.4375 35.94862829 16.4375 37.0625 C13.7975 37.0625 11.1575 37.0625 8.4375 37.0625 C7.18085022 34.15649739 6.4375 32.26645416 6.4375 29.0625 C0.0025 29.5575 0.0025 29.5575 -6.5625 30.0625 C-7.5525 32.3725 -8.5425 34.6825 -9.5625 37.0625 C-11.8725 37.0625 -14.1825 37.0625 -16.5625 37.0625 C-15.05291712 29.05739765 -12.37105123 21.67261315 -9.5 14.0625 C-9.03532903 12.81137544 -8.57113287 11.56007443 -8.10742188 10.30859375 C-4.282511 0.07513177 -4.282511 0.07513177 0 0 Z M-1.5625 12.0625 C-3.0475 17.5075 -3.0475 17.5075 -4.5625 23.0625 C-1.9225 23.0625 0.7175 23.0625 3.4375 23.0625 C2.76579194 19.2561543 1.71003436 15.71043184 0.4375 12.0625 C-0.2225 12.0625 -0.8825 12.0625 -1.5625 12.0625 Z " fill="#001163" transform="translate(486.5625,241.9375)"/>
<path d="M0 0 C2.31 0 4.62 0 7 0 C7 12.21 7 24.42 7 37 C5.02 37 3.04 37 1 37 C0.67 36.34 0.34 35.68 0 35 C-0.99 35.7734375 -0.99 35.7734375 -2 36.5625 C-5.87413898 38.41885826 -9.00008181 38.34946735 -13 37 C-16.36643074 34.20657875 -18.79509037 32.05581464 -19.23828125 27.609375 C-19.39447672 21.59173892 -19.35799004 17.59355706 -15 13 C-11.34680054 10.88498979 -8.17573808 10.64461804 -4 11 C-2.68 11.66 -1.36 12.32 0 13 C0 8.71 0 4.42 0 0 Z M-11 19 C-12.52491998 22.04983996 -12.23562548 24.6423369 -12 28 C-11.01951062 30.06402685 -11.01951062 30.06402685 -9 31 C-5.88188517 31.38976435 -3.88980433 31.50422245 -1.125 29.9375 C0.64273274 26.8930714 0.36823916 24.4368988 0 21 C-1.45858864 18.81211703 -2.53580308 18.19466322 -4.9375 17.1875 C-7.56765449 16.94839505 -8.81192864 17.566436 -11 19 Z " fill="#001164" transform="translate(573,242)"/>
<path d="M0 0 C3.10616912 2.50219179 5.02259413 4.81909459 5.48876953 8.90551758 C5.54483968 11.31880688 5.51176716 13.7122695 5.4375 16.125 C5.41719727 17.37893555 5.41719727 17.37893555 5.39648438 18.65820312 C5.36131217 20.70991498 5.30751048 22.76129275 5.25 24.8125 C2.25 24.8125 -0.75 24.8125 -3.75 24.8125 C-5.02875 25.039375 -6.3075 25.26625 -7.625 25.5 C-10.7642607 25.91625556 -11.66556616 25.85022576 -14.6875 24.5 C-17.56910568 22.14232262 -17.70737436 21.1961308 -18.125 17.4375 C-17.75 13.8125 -17.75 13.8125 -15.9375 11.4375 C-11.34305526 9.09523405 -6.84708998 8.99103205 -1.75 8.8125 C-2.41 7.8225 -3.07 6.8325 -3.75 5.8125 C-6.75 5.3125 -6.75 5.3125 -9.75 5.8125 C-10.74 7.2975 -10.74 7.2975 -11.75 8.8125 C-14.875 9 -14.875 9 -17.75 8.8125 C-15.82517084 2.14962984 -15.82517084 2.14962984 -12.75 -0.1875 C-8.24440359 -1.68936547 -4.40786663 -1.90339695 0 0 Z M-10.75 15.8125 C-10.42 17.1325 -10.09 18.4525 -9.75 19.8125 C-6.285 19.3175 -6.285 19.3175 -2.75 18.8125 C-2.42 17.1625 -2.09 15.5125 -1.75 13.8125 C-5.37528568 13.61109524 -7.61501708 13.95473235 -10.75 15.8125 Z " fill="#4060FC" transform="translate(626.75,254.1875)"/>
<path d="M0 0 C0.75023437 0.04382813 1.50046875 0.08765625 2.2734375 0.1328125 C5.93952996 1.28988487 7.37179943 2.75366612 9.625 5.875 C10.22289162 9.33655569 10.0982476 12.68814836 9.9375 16.1875 C9.91494141 17.11884766 9.89238281 18.05019531 9.86914062 19.00976562 C9.81042078 21.2998396 9.72836858 23.58657875 9.625 25.875 C6.625 25.875 3.625 25.875 0.625 25.875 C-0.48875 26.08125 -1.6025 26.2875 -2.75 26.5 C-6.50056644 26.88798963 -8.17400318 26.79559809 -11.375 24.875 C-13.52704428 22.23385475 -13.37109381 20.76367355 -13.25 17.3125 C-12.375 13.875 -12.375 13.875 -10.6796875 12.203125 C-7.88880334 10.59481887 -5.82703662 10.37809742 -2.625 10.1875 C-1.64015625 10.12175781 -0.6553125 10.05601562 0.359375 9.98828125 C1.10703125 9.95089844 1.8546875 9.91351563 2.625 9.875 C2.295 8.885 1.965 7.895 1.625 6.875 C-1.015 6.875 -3.655 6.875 -6.375 6.875 C-6.375 7.865 -6.375 8.855 -6.375 9.875 C-8.355 9.875 -10.335 9.875 -12.375 9.875 C-11.88553485 4.36851702 -11.88553485 4.36851702 -9.5 2.0625 C-6.18596711 0.21054044 -3.72638769 -0.29251508 0 0 Z M-6.375 16.875 C-6.045 18.195 -5.715 19.515 -5.375 20.875 C-2.45847826 21.04181109 -2.45847826 21.04181109 0.625 20.875 C1.285 20.215 1.945 19.555 2.625 18.875 C2.625 17.555 2.625 16.235 2.625 14.875 C-1.00028568 14.67359524 -3.24001708 15.01723235 -6.375 16.875 Z " fill="#001163" transform="translate(541.375,253.125)"/>
<path d="M0 0 C2.64 0 5.28 0 8 0 C9.65 4.62 11.3 9.24 13 14 C16.12093247 7.05111977 16.12093247 7.05111977 19 0 C21.31 0 23.62 0 26 0 C24.90781189 6.50498814 22.20687478 12.41233899 19.75 18.5 C19.27175781 19.72332031 18.79351563 20.94664062 18.30078125 22.20703125 C17.82511719 23.38652344 17.34945312 24.56601562 16.859375 25.78125 C16.43108398 26.85439453 16.00279297 27.92753906 15.56152344 29.03320312 C13.78778476 32.40319569 11.91860418 34.56206773 9 37 C5.25 37.375 5.25 37.375 2 37 C1 36 1 36 0.9375 32.9375 C0.958125 31.968125 0.97875 30.99875 1 30 C4.465 29.505 4.465 29.505 8 29 C9.40459944 25.24421114 8.55952662 23.0550501 7.12890625 19.39453125 C6.71962891 18.32912109 6.31035156 17.26371094 5.88867188 16.16601562 C5.45103516 15.05935547 5.01339844 13.95269531 4.5625 12.8125 C3.70857985 10.61108624 2.85565823 8.4092848 2.00390625 6.20703125 C1.62049072 5.2322583 1.2370752 4.25748535 0.84204102 3.25317383 C0 1 0 1 0 0 Z " fill="#4060FC" transform="translate(632,254)"/>
<path d="M0 0 C2.70552388 2.19823815 4.44778333 3.89556667 6 7 C6 9.31 6 11.62 6 14 C0.06 14 -5.88 14 -12 14 C-11.34 15.32 -10.68 16.64 -10 18 C-6.93824764 18.65608979 -4.12778616 19 -1 19 C-0.67 18.01 -0.34 17.02 0 16 C1.98 16 3.96 16 6 16 C5.72342508 19.31889905 5.21633092 20.76400263 2.9375 23.25 C-0.6694024 25.39879292 -3.84658379 26.19703113 -8 26 C-11.94612324 24.83557019 -14.23202412 23.92157105 -16.875 20.75 C-18.89866336 15.80326734 -19.52254804 11.84276601 -17.8125 6.75 C-16.4501308 3.53381336 -15.16278298 1.68022846 -12 0 C-7.82507137 -1.39164288 -4.24477353 -1.10959869 0 0 Z M-10.375 6.875 C-12.10124168 8.68654017 -12.10124168 8.68654017 -12 10 C-8.37 10 -4.74 10 -1 10 C-1.33 8.68 -1.66 7.36 -2 6 C-6.48665003 4.68056551 -6.48665003 4.68056551 -10.375 6.875 Z " fill="#4060FC" transform="translate(676,254)"/>
<path d="M0 0 C2.64 0 5.28 0 8 0 C8 9.9 8 19.8 8 30 C12.62 30 17.24 30 22 30 C22 32.31 22 34.62 22 37 C14.74 37 7.48 37 0 37 C0 24.79 0 12.58 0 0 Z " fill="#4060FC" transform="translate(585,242)"/>
<path d="M0 0 C2.74476507 1.32387837 4.59532543 2.37032193 5.94921875 5.16796875 C6.50390625 7.09375 6.50390625 7.09375 7.06640625 10.34375 C3.69140625 10.53125 3.69140625 10.53125 0.06640625 10.34375 C-0.59359375 9.35375 -1.25359375 8.36375 -1.93359375 7.34375 C-4.91263338 6.19057337 -5.79918506 6.2989471 -8.93359375 7.34375 C-10.42656587 10.32969424 -10.05114603 13.05228624 -9.93359375 16.34375 C-9.60359375 17.00375 -9.27359375 17.66375 -8.93359375 18.34375 C-5.51716616 18.59390873 -5.51716616 18.59390873 -1.93359375 18.34375 C-1.27359375 17.35375 -0.61359375 16.36375 0.06640625 15.34375 C3.69140625 15.15625 3.69140625 15.15625 7.06640625 15.34375 C6.1992647 18.81231622 5.37927745 21.00327251 2.94140625 23.65625 C-0.6984943 25.79271337 -3.7155557 26.5670579 -7.93359375 26.34375 C-11.57984852 24.96780481 -14.49450306 23.42470666 -16.93359375 20.34375 C-18.29057633 16.27280226 -18.45746606 12.60021256 -17.93359375 8.34375 C-14.19652135 0.8696052 -8.37105997 -2.84108702 0 0 Z " fill="#001164" transform="translate(519.93359375,253.65625)"/>
<path d="M0 0 C0.66 0 1.32 0 2 0 C4.33106301 3.04557806 6.21239096 6.40322778 8.1875 9.6875 C8.75919922 10.59951172 9.33089844 11.51152344 9.91992188 12.45117188 C10.72333008 13.78051758 10.72333008 13.78051758 11.54296875 15.13671875 C12.03821045 15.94842529 12.53345215 16.76013184 13.04370117 17.59643555 C14.21407291 20.53805151 13.93073541 22.01365647 13 25 C11.80859375 27.23828125 11.80859375 27.23828125 10.4375 29.3125 C9.75494141 30.35857422 9.75494141 30.35857422 9.05859375 31.42578125 C8.70925781 31.94527344 8.35992187 32.46476562 8 33 C3.93419581 29.22409273 0.95817164 25.28503439 -1.9375 20.5625 C-2.36095703 19.91990234 -2.78441406 19.27730469 -3.22070312 18.61523438 C-5.30706938 15.21842319 -6.15299098 13.80588241 -5.38671875 9.76953125 C-3.7040203 6.40887434 -1.93411759 3.22352932 0 0 Z " fill="#4060FD" transform="translate(439,241)"/>
<path d="M0 0 C5.33333333 0 10.66666667 0 16 0 C16 1.98 16 3.96 16 6 C14.865625 6.28875 13.73125 6.5775 12.5625 6.875 C11.386875 7.24625 10.21125 7.6175 9 8 C7.47893366 11.04213267 7.62570662 14.28047572 7.4375 17.625 C7.39431641 18.33140625 7.35113281 19.0378125 7.30664062 19.765625 C7.20055249 21.51018537 7.09977111 23.25506697 7 25 C4.69 25 2.38 25 0 25 C0 16.75 0 8.5 0 0 Z " fill="#4060FC" transform="translate(685,254)"/>
</svg>
