<svg width="84" height="66" viewBox="0 0 84 66" fill="none" xmlns="http://www.w3.org/2000/svg">
<path d="M2.604 14H1.26V4.48H3.99C4.662 4.48 5.26867 4.58267 5.81 4.788C6.36067 4.984 6.79467 5.30133 7.112 5.74C7.42933 6.16933 7.588 6.73867 7.588 7.448C7.588 7.98 7.48533 8.43733 7.28 8.82C7.084 9.20267 6.81333 9.52 6.468 9.772C6.12267 10.0147 5.726 10.1967 5.278 10.318C4.83 10.4393 4.354 10.5 3.85 10.5H2.604V14ZM3.976 5.614H2.604V9.38H3.906C4.33533 9.38 4.718 9.31933 5.054 9.198C5.39 9.06733 5.656 8.862 5.852 8.582C6.05733 8.302 6.16933 7.94267 6.188 7.504C6.188 7.01867 6.09467 6.64067 5.908 6.37C5.73067 6.09933 5.47867 5.908 5.152 5.796C4.82533 5.67467 4.43333 5.614 3.976 5.614ZM13.0797 14.196C12.2117 14.196 11.4371 13.986 10.7557 13.566C10.0744 13.146 9.53772 12.5673 9.14572 11.83C8.76305 11.0833 8.57172 10.2387 8.57172 9.296C8.57172 8.33467 8.76772 7.48067 9.15972 6.734C9.55172 5.978 10.0884 5.38067 10.7697 4.942C11.4604 4.50333 12.2444 4.27467 13.1217 4.256C13.9991 4.256 14.7784 4.47067 15.4597 4.9C16.1411 5.32 16.6777 5.90333 17.0697 6.65C17.4617 7.38733 17.6577 8.22733 17.6577 9.17C17.6577 10.1313 17.4571 10.99 17.0557 11.746C16.6637 12.4927 16.1224 13.0853 15.4317 13.524C14.7504 13.9533 13.9664 14.1773 13.0797 14.196ZM13.0657 13.048C13.6817 13.048 14.2277 12.8847 14.7037 12.558C15.1797 12.222 15.5531 11.7647 15.8237 11.186C16.0944 10.598 16.2297 9.93067 16.2297 9.184C16.2297 8.456 16.0944 7.80733 15.8237 7.238C15.5624 6.66867 15.1984 6.22533 14.7317 5.908C14.2744 5.58133 13.7471 5.418 13.1497 5.418C12.5337 5.418 11.9877 5.586 11.5117 5.922C11.0357 6.24867 10.6577 6.70133 10.3777 7.28C10.1071 7.85867 9.97172 8.52133 9.97172 9.268C9.97172 9.996 10.1024 10.6447 10.3637 11.214C10.6344 11.7833 11.0031 12.2313 11.4697 12.558C11.9364 12.8847 12.4684 13.048 13.0657 13.048ZM30.5729 4.48L27.8289 14H26.6109L24.4689 6.412L22.3969 14H21.1789L18.3509 4.564L19.6809 4.368L21.8089 12.194L23.8249 4.48H25.1409L27.2409 12.194L29.2569 4.48H30.5729ZM38.015 14H31.967V4.48H37.329L37.511 5.516H33.311V8.638H36.545L36.727 9.674H33.311V12.95H37.833L38.015 14ZM42.2709 5.614H40.8989V9.1H42.2009C42.6209 9.1 42.9989 9.044 43.3349 8.932C43.6803 8.82 43.9556 8.638 44.1609 8.386C44.3756 8.134 44.4829 7.79333 44.4829 7.364C44.4829 6.916 44.3896 6.566 44.2029 6.314C44.0256 6.062 43.7689 5.88467 43.4329 5.782C43.1063 5.67 42.7189 5.614 42.2709 5.614ZM39.5549 4.48H42.2849C42.9569 4.48 43.5636 4.578 44.1049 4.774C44.6556 4.96067 45.0896 5.264 45.4069 5.684C45.7243 6.09467 45.8829 6.636 45.8829 7.308C45.8736 7.93333 45.7149 8.456 45.4069 8.876C45.0989 9.28667 44.7023 9.59467 44.2169 9.8L46.6109 14H45.1549L43.0269 10.15C42.9523 10.1593 42.8169 10.1687 42.6209 10.178C42.4343 10.1873 42.2756 10.192 42.1449 10.192H40.8989V14H39.5549V4.48ZM54.0521 14H48.0041V4.48H53.3661L53.5481 5.516H49.3481V8.638H52.5821L52.7641 9.674H49.3481V12.95H53.8701L54.0521 14ZM58.966 14H55.592V4.48H59.022C60.0114 4.48 60.814 4.68533 61.43 5.096C62.0554 5.50667 62.5174 6.06667 62.816 6.776C63.1147 7.48533 63.264 8.288 63.264 9.184C63.264 10.108 63.096 10.934 62.76 11.662C62.4334 12.39 61.9527 12.964 61.318 13.384C60.6834 13.7947 59.8994 14 58.966 14ZM59.078 5.628H56.936V12.88H58.966C59.554 12.88 60.0674 12.74 60.506 12.46C60.9447 12.18 61.2854 11.7693 61.528 11.228C61.78 10.6773 61.906 10.0007 61.906 9.198C61.906 8.48867 61.8034 7.868 61.598 7.336C61.402 6.804 61.094 6.38867 60.674 6.09C60.2634 5.782 59.7314 5.628 59.078 5.628ZM71.5969 14H68.3069V4.48H71.3029C71.9469 4.48 72.5115 4.564 72.9969 4.732C73.4915 4.89067 73.8789 5.15667 74.1589 5.53C74.4389 5.90333 74.5789 6.412 74.5789 7.056C74.5789 7.46667 74.4529 7.826 74.2009 8.134C73.9582 8.43267 73.6782 8.68467 73.3609 8.89C73.8649 9.086 74.2755 9.38 74.5929 9.772C74.9102 10.164 75.0689 10.668 75.0689 11.284C75.0689 11.76 74.9802 12.1707 74.8029 12.516C74.6349 12.852 74.3922 13.132 74.0749 13.356C73.7669 13.5707 73.4029 13.734 72.9829 13.846C72.5629 13.9487 72.1009 14 71.5969 14ZM71.1909 5.614H69.6509V8.54H70.9529C71.3635 8.53067 71.7369 8.47933 72.0729 8.386C72.4182 8.29267 72.6889 8.13867 72.8849 7.924C73.0902 7.70933 73.1929 7.42467 73.1929 7.07C73.1929 6.678 73.1089 6.37933 72.9409 6.174C72.7822 5.95933 72.5535 5.81467 72.2549 5.74C71.9562 5.656 71.6015 5.614 71.1909 5.614ZM71.6809 9.632H69.6509V12.894H71.5409C71.9515 12.894 72.3202 12.8427 72.6469 12.74C72.9735 12.628 73.2302 12.4553 73.4169 12.222C73.6035 11.9887 73.6969 11.6853 73.6969 11.312C73.6969 10.7333 73.5102 10.3087 73.1369 10.038C72.7729 9.76733 72.2875 9.632 71.6809 9.632ZM80.1164 14H78.7724V10.22L75.6224 4.718L76.9244 4.242L79.4444 8.876L82.0204 4.48H83.4484L80.1304 10.206L80.1164 14Z" fill="white"/>
<path d="M51.0796 41.1807V40.1898C51.0026 40.2792 50.9256 40.3686 50.8511 40.458C50.5829 40.7734 50.5556 41.0441 50.7543 41.4066C50.799 41.4886 50.8536 41.5631 50.8983 41.645C50.9579 41.7568 51.02 41.8685 51.0672 41.9852C51.0721 42.0001 51.0746 42.015 51.0796 42.0275V41.1807Z" fill="white"/>
<path d="M49.4303 42.1096C49.1497 42.4325 48.874 42.7578 48.5959 43.0806C48.576 43.1029 48.5288 43.1253 48.5065 43.1178C48.1638 43.0111 47.8186 42.9763 47.4685 43.0309L49.2192 41.0369C49.2192 41.0816 49.2192 41.1238 49.2242 41.1685C49.244 41.4466 49.321 41.7074 49.4476 41.9557C49.4799 42.0178 49.4774 42.055 49.4327 42.1096M49.1571 44.506C48.9932 44.6773 48.7945 44.6724 48.5909 44.6028C48.4245 44.5457 48.2631 44.4737 48.0968 44.4141C47.8633 44.3297 47.6349 44.3322 47.4213 44.4712C47.3418 44.5234 47.2673 44.5904 47.2053 44.66C47.0612 44.8214 46.9296 44.9952 46.7881 45.1591C46.3237 45.7029 45.8593 46.2418 45.395 46.7856C45.1268 47.101 45.0995 47.3717 45.2981 47.7342C45.3428 47.8162 45.3974 47.8907 45.4421 47.9726C45.5017 48.0844 45.5638 48.1961 45.611 48.3128C45.6631 48.442 45.6458 48.5761 45.5638 48.6853C45.4744 48.807 45.3701 48.9163 45.2658 49.0355C44.7891 48.7871 44.4339 48.4295 44.2452 47.9279C44.0763 47.4834 44.0937 47.0687 44.2576 46.6838L47.0463 43.5052C47.5877 43.2221 48.1936 43.2668 48.7474 43.5822C49.0454 43.7511 49.2937 43.987 49.4203 44.1956C49.3285 44.3024 49.2465 44.4067 49.1546 44.506M47.2227 47.3096C47.4983 46.9942 47.769 46.6714 48.0471 46.356C48.0694 46.3312 48.1216 46.3088 48.1464 46.3188C48.5413 46.4504 48.9386 46.4628 49.3657 46.366C48.7101 47.1308 48.0744 47.8733 47.4263 48.6282C47.4263 48.5115 47.4263 48.4097 47.4213 48.3079C47.4064 48.0198 47.3294 47.7442 47.1953 47.4884C47.1556 47.4114 47.168 47.3692 47.2202 47.3096M43.977 48.437C43.6964 48.7598 43.4208 49.0851 43.1426 49.408C43.1228 49.4303 43.0756 49.4526 43.0532 49.4452C42.6733 49.326 42.2884 49.2962 41.8985 49.3831L43.761 47.2574C43.761 47.3394 43.761 47.4164 43.7684 47.4958C43.7858 47.774 43.8653 48.0372 43.9919 48.283C44.0242 48.3451 44.0217 48.3824 43.977 48.437ZM38.859 47.9006C38.2779 47.9006 37.7887 47.6175 37.3914 47.0513C36.9966 46.4851 36.7979 45.7973 36.7979 44.9853V42.7379C36.9593 43.545 37.5876 44.3024 38.2655 44.6699C38.8814 45.0051 39.5941 45.1119 39.748 45.1318V45.1367H44.6227L42.05 47.8956H38.859V47.9006ZM49.7581 35.9785L45.3155 33.4604L43.2668 32.3156L43.2569 32.3107C43.1724 32.261 43.0806 32.2213 42.9862 32.184C42.9713 32.1791 42.9564 32.1716 42.9415 32.1666C42.7925 32.112 42.6485 32.0648 42.4821 32.0375C42.3157 32.0127 42.1593 31.9978 41.9879 32.0003C41.973 32.0003 41.9581 32.0003 41.9407 32.0003C41.9308 32.0003 41.9209 32.0003 41.9134 32.0003C41.8166 32.0003 41.7197 32.0077 41.6254 32.0152C41.598 32.0177 41.5707 32.0201 41.5409 32.0251C41.5211 32.0276 41.4987 32.0276 41.4789 32.0326C41.4789 32.0326 41.4838 32.0326 41.4863 32.035C41.166 32.0797 40.863 32.1691 40.6147 32.3132L38.7125 33.4058L34.2203 35.9859C33.4952 36.4031 32.8992 37.4262 32.8992 38.2581V45.6731C32.8992 46.5075 33.4927 47.5306 34.2203 47.9453L40.1453 51.3474L41.2951 50.0635C41.9234 49.5892 42.7528 49.5818 43.4381 50.0735C43.6343 50.2125 43.8007 50.3789 43.9472 50.5751C43.8454 50.6943 43.7535 50.816 43.6467 50.9203C43.5424 51.0221 43.4059 51.0618 43.2618 51.0221C43.083 50.9699 42.9117 50.9004 42.7354 50.8408C42.651 50.811 42.5665 50.7787 42.4796 50.7613C42.2238 50.7067 41.9979 50.7713 41.8191 50.965C41.6701 51.1239 41.531 51.2903 41.3895 51.4566C41.2876 51.5734 41.1883 51.6926 41.0865 51.8093C41.3646 51.8887 41.6651 51.9334 41.9705 51.9285C41.9904 51.9285 42.0103 51.9285 42.0301 51.9285C42.0401 51.9285 42.05 51.9285 42.0575 51.9285C42.0624 51.9285 42.0674 51.9285 42.0723 51.9285C42.0376 51.8987 42.0003 51.8664 41.9681 51.8341C41.8911 51.7571 41.8215 51.6702 41.752 51.5907C41.8662 51.4591 41.9606 51.325 42.0773 51.2158C42.2263 51.0792 42.4101 51.1065 42.5864 51.1686C42.7254 51.2183 42.862 51.2779 43.0011 51.33C43.4307 51.4914 43.6914 51.4268 43.9894 51.0792C44.5904 50.3789 45.1938 49.6761 45.7898 48.9709C45.8767 48.8691 45.9438 48.74 45.986 48.6133C46.0456 48.4395 45.9984 48.2656 45.914 48.1067C45.8271 47.9453 45.7277 47.7938 45.6408 47.6349C45.4918 47.3667 45.5092 47.1978 45.7054 46.9669C45.7699 46.8899 45.8345 46.8154 45.904 46.736C46.6043 47.0538 47.0836 47.8112 47.0438 48.5338C47.0215 48.9411 46.8626 49.2937 46.5993 49.5992C46.51 49.7035 46.4205 49.8102 46.3287 49.9145L49.7506 47.9503C50.4757 47.5331 51.0717 46.51 51.0717 45.6781V44.4191C50.7762 44.7642 50.4782 45.1094 50.1827 45.4571C49.3657 46.4131 48.1688 46.2517 47.4238 45.5092C47.3468 45.4322 47.2773 45.3453 47.2077 45.2659C47.322 45.1343 47.4163 45.0002 47.5331 44.8909C47.6821 44.7543 47.8658 44.7816 48.0421 44.8437C48.1812 44.8934 48.3178 44.953 48.4568 45.0051C48.8864 45.1665 49.1472 45.0995 49.4452 44.7543C49.989 44.1211 50.5328 43.4854 51.0717 42.8496V42.2437C51.0593 42.2884 51.0419 42.3306 51.0146 42.3704C50.9252 42.4921 50.8209 42.6013 50.7166 42.7205C50.2398 42.4722 49.8847 42.1146 49.696 41.613C49.5544 41.2405 49.547 40.8879 49.6438 40.5551L51.0742 38.9261V38.2655C51.0742 37.4312 50.4807 36.4081 49.7531 35.9909" fill="white"/>
<path d="M48.1066 36.81H48.1587L45.8046 39.5689H40.8132C40.6816 39.5689 40.5624 39.5789 40.4581 39.6012C40.3538 39.6236 40.2619 39.6534 40.1825 39.6956C40.1104 39.7328 40.0484 39.7775 39.9962 39.8322C39.9639 39.8669 39.9341 39.9042 39.9093 39.9439C39.9019 39.9563 39.8944 39.9663 39.8869 39.9787C39.8398 40.0606 39.8075 40.155 39.7851 40.2618C39.7628 40.3685 39.7529 40.4853 39.7529 40.6169V45.1339C39.6014 45.1141 38.8862 45.0048 38.2703 44.672C37.5924 44.302 36.9641 43.5446 36.8027 42.7401V39.7279C36.8027 39.5441 36.8152 39.3678 36.835 39.1964C36.8723 38.896 36.9368 38.6129 37.0362 38.3496C37.0833 38.2255 37.1355 38.1063 37.1976 37.9896C37.2572 37.8729 37.3267 37.7636 37.4012 37.6543C37.4509 37.5823 37.503 37.5153 37.5552 37.4532C37.6595 37.329 37.7712 37.2222 37.8879 37.1328C38.1809 36.9094 38.5112 36.7976 38.8763 36.7976L48.109 36.81H48.1066Z" fill="#01B4E2"/>
<path d="M20.4876 59.6317H16.1717V57.5532H20.4876V59.6317ZM20.9768 55.8944H15.6974C15.3324 55.8944 15.0319 56.0707 14.7786 56.4357C14.5154 56.8132 14.3813 57.2825 14.3813 57.8288V61.8939H6.99852V57.5532H11.9402L13.1322 55.8944H6.52174C6.1567 55.8944 5.85623 56.0707 5.60045 56.4357C5.33722 56.8132 5.20312 57.2825 5.20312 57.8288V61.6158C5.20312 62.1621 5.33722 62.6315 5.60045 63.0089C5.85374 63.374 6.1567 63.5503 6.52174 63.5503H16.1742V60.9999H20.4901V63.5503H22.2706V57.7394C22.2706 57.2353 22.1365 56.7983 21.8733 56.4357C21.6175 56.0682 21.3245 55.8919 20.9768 55.8919" fill="white"/>
<path d="M27.0011 59.1573H29.3503V57.491H25.387V63.5526H23.5171V55.8943H29.8519C30.2343 55.8943 30.5422 56.0706 30.798 56.4381C31.0786 56.823 31.2202 57.2923 31.2202 57.8287V58.7649C31.2202 58.9934 31.1953 59.2119 31.1482 59.4155C31.1035 59.6142 31.029 59.7979 30.9296 59.9618C30.8328 60.1208 30.7037 60.2574 30.5422 60.3691C30.3808 60.4808 30.1847 60.5603 29.9562 60.605L29.7377 60.6472L31.4238 63.6023H29.4695L27.838 60.6596" fill="white"/>
<path d="M38.8197 60.6051C39.0482 60.5604 39.2444 60.4809 39.4058 60.3692C39.5672 60.2575 39.6963 60.1209 39.7932 59.9619C39.8925 59.7981 39.967 59.6143 40.0117 59.4156C40.0589 59.212 40.0837 58.9935 40.0837 58.765V57.8263C40.0837 57.29 39.9422 56.8206 39.6615 56.4357C39.4058 56.0682 39.0954 55.8919 38.7154 55.8919H32.3806V63.5503H34.2505V57.4886H38.2138V59.1549H35.8646L39.2344 65.2165H41.1912L38.6037 60.6473L38.8222 60.6051H38.8197Z" fill="white"/>
<path d="M55.715 55.8943H57.8407V63.4831H55.715V60.7639H52.0721V63.4831H49.9836V55.8943H52.0721V58.9934H55.715V55.8943Z" fill="#01B4E2"/>
<path d="M61.9391 59.4452H64.5193V57.7814H60.7323V59.4452H61.9391ZM60.7323 61.0593V63.483H58.7134V57.8907C58.7134 57.3369 58.8475 56.8651 59.1182 56.4777C59.3888 56.0903 59.7241 55.8966 60.1214 55.8966H65.1376C65.52 55.8966 65.8453 56.0903 66.116 56.4777C66.3867 56.8502 66.5232 57.2922 66.5232 57.8087V63.4855H64.5168V61.0618H60.7298L60.7323 61.0593Z" fill="#01B4E2"/>
<path d="M67.6453 63.4807V55.8919H69.9025V63.4931L67.6453 63.4807Z" fill="#01B4E2"/>
<path d="M76.7679 57.7816H72.9462V63.4807H70.9397V55.8919H77.4012C77.7836 55.8919 78.1089 56.0856 78.3796 56.473C78.6577 56.8529 78.7967 57.3247 78.7967 57.8859V63.4782H76.7654V57.7792L76.7679 57.7816Z" fill="#01B4E2"/>
<path d="M43.7439 61.6163V61.6113C43.6396 61.5989 43.1479 61.5244 42.7233 61.2935C42.2564 61.0402 41.8244 60.5187 41.7151 59.9649V61.5095C41.7151 62.0657 41.8517 62.5401 42.1223 62.9299C42.393 63.3198 42.7307 63.516 43.1306 63.516H46.0856L49.001 61.6188H43.7439V61.6163Z" fill="white"/>
<path d="M44.4765 57.7841C44.3846 57.7841 44.3027 57.7916 44.2306 57.8065C44.1586 57.8214 44.0965 57.8437 44.0394 57.871C43.9898 57.8959 43.9475 57.9282 43.9103 57.9654C43.888 57.9902 43.8681 58.0151 43.8507 58.0424C43.8457 58.0498 43.8408 58.0573 43.8358 58.0672C43.8035 58.1243 43.7812 58.1889 43.7663 58.2609C43.7514 58.3329 43.7439 58.4149 43.7439 58.5043V61.6108C43.6396 61.5959 43.1479 61.5239 42.7233 61.293C42.2564 61.0397 41.8244 60.5182 41.7151 59.9644V57.8934C41.7151 57.7667 41.7225 57.6451 41.7374 57.5283C41.7623 57.3222 41.807 57.1261 41.8765 56.9473C41.9088 56.8628 41.946 56.7809 41.9883 56.7014C42.0305 56.622 42.0752 56.5475 42.1248 56.4754C42.1596 56.4258 42.1944 56.3811 42.2291 56.3389C42.3011 56.2544 42.3781 56.1799 42.4576 56.1203C42.5569 56.0434 42.6637 55.9862 42.7779 55.949C42.8897 55.9117 43.0089 55.8919 43.133 55.8919H49.299L47.6799 57.7891H44.4765V57.7841Z" fill="#01B4E2"/>
</svg>
